<?xml version="1.0" encoding="utf-8"?>
<!-- Generator: Adobe Illustrator 19.1.0, SVG Export Plug-In . SVG Version: 6.00 Build 0)  -->
<svg version="1.1" id="Layer_1" xmlns="http://www.w3.org/2000/svg" xmlns:xlink="http://www.w3.org/1999/xlink" x="0px" y="0px"
	 viewBox="-109.7 357 185.3 80" style="enable-background:new -109.7 357 185.3 80;" xml:space="preserve">
<style type="text/css">
	.st0{fill:#99CA3C;}
	.st1{fill:#FFFFFF;}
</style>
<g>
	<path class="st0" d="M-43.9,381c-6.3,5.2-14.6,11-17.7,19.8C-66.9,416-38.7,437-38.7,437S-70,419.5-70,398.8
		c0-20.7,12.7-36,19.4-40.1C-38.7,352.2-25.3,365.8-43.9,381z"/>
	<path class="st1" d="M-86.9,399.6c11.4-5,19-19,19-19s-14.7,28.7-26.4,37.5c-7.4,4.9-15.8,2.5-15.4-5.6
		C-109.2,404.4-98.2,404.6-86.9,399.6z"/>
	<g>
		<g>
			<path class="st1" d="M-27.7,414H-32v-2.6c-1.1,2.1-3.5,3.1-6,3.1c-5.7,0-9.1-4.5-9.1-9.5c0-5.6,4.1-9.5,9.1-9.5
				c3.3,0,5.2,1.7,6,3.2v-2.6h4.3L-27.7,414L-27.7,414z M-42.8,405.1c0,2.2,1.6,5.4,5.4,5.4c2.4,0,3.9-1.2,4.8-2.9
				c0.4-0.8,0.6-1.6,0.7-2.5c0-0.8-0.1-1.7-0.5-2.5c-0.7-1.7-2.4-3.2-5-3.2C-40.9,399.5-42.8,402.3-42.8,405.1L-42.8,405.1
				L-42.8,405.1z"/>
			<path class="st1" d="M-26.3,396.2h4v2.3c0.8-1.6,2.2-2.9,5-2.9v4.3h-0.2c-3,0-4.5,1.4-4.5,4.5v9.6h-4.3V396.2z"/>
			<path class="st1" d="M-13,399.9h-3v-4.3h3v-4.9h4.3v4.9h3.1v4.3h-3.1V414H-13V399.9z"/>
			<path class="st1" d="M-4.3,390.7h4.3v3.6h-4.3V390.7z M-4.3,395.6h4.3V414h-4.3V395.6z"/>
			<path class="st1" d="M9.9,401c0-0.9-0.5-1.9-2.2-1.9c-1.4,0-2.1,0.9-2.1,1.8c0,1.1,1.3,1.8,3,2.2c2.9,0.8,6,1.6,6,5.5
				c0.1,3.7-3,6-6.8,6c-2.8,0-6.5-1.4-6.8-5.8h4.3c0.2,1.9,1.8,2.3,2.6,2.3c1.3,0,2.5-0.9,2.4-2.1c0-1.5-1.3-2-4.6-3.1
				c-2.4-0.8-4.4-2.1-4.4-4.7c0-3.5,3-5.7,6.4-5.7c2.4,0,6,1.1,6.4,5.4L9.9,401L9.9,401z"/>
			<path class="st1" d="M34.9,414h-4.3v-2.6c-1.1,2.1-3.5,3.1-6,3.1c-5.7,0-9.1-4.5-9.1-9.5c0-5.6,4.1-9.5,9.1-9.5
				c3.3,0,5.2,1.7,6,3.2v-2.6h4.3V414z M19.3,405.2c0,2.2,1.6,5.4,5.4,5.4c2.4,0,3.9-1.2,4.8-2.9c0.4-0.8,0.6-1.6,0.7-2.5
				c0-0.8-0.1-1.7-0.5-2.5c-0.8-1.7-2.4-3.2-5-3.2C21.2,399.6,19.3,402.4,19.3,405.2L19.3,405.2L19.3,405.2z"/>
			<path class="st1" d="M36.2,396.2h4c0,0.8,0,1.5,0,2.4c0.8-1.4,2.4-3,5.6-2.9c5.8,0,6.9,4.5,6.9,7.7V414h-4.3v-9.7
				c0-2.7-0.9-4.7-3.9-4.7c-3,0-4.1,2.1-4.1,4.6v9.9h-4.3L36.2,396.2L36.2,396.2z"/>
		</g>
	</g>
	<g>
		<path class="st0" d="M17.6,417.5h2.5v1.4c0.2-0.5,1.3-1.7,3.2-1.7c0.9,0,1.9,0.3,2.7,1.1c0.2,0.3,0.5,0.7,0.7,1
			c0.2-0.3,0.4-0.7,0.8-1c0.7-0.6,1.6-1.1,2.8-1.1c0.9,0,2.1,0.2,2.9,1.1c1,1,1.2,1.9,1.2,4.2v6h-2.6v-5.9c0-0.7-0.1-1.5-0.4-2
			c-0.3-0.5-0.8-0.9-1.7-0.9c-0.9,0-1.6,0.4-1.9,1c-0.3,0.6-0.4,1.2-0.4,1.8v6h-2.6v-6c0-0.6-0.1-1.3-0.3-1.8c-0.3-0.6-0.9-1-1.8-1
			c-1,0-1.6,0.5-1.9,1c-0.3,0.6-0.4,1.3-0.4,1.9v5.9h-2.6L17.6,417.5L17.6,417.5z"/>
		<path class="st0" d="M37.8,423.9c0.1,1.8,1.7,2.7,3.2,2.7c1.3,0,2.1-0.6,2.6-1.5h2.7c-0.5,1.2-1.3,2.1-2.2,2.8c-0.9,0.6-2,1-3.1,1
			c-3.4,0-5.8-2.7-5.8-5.8c0-3.1,2.4-5.9,5.8-5.9c1.6,0,3.1,0.6,4.1,1.7c1.3,1.4,1.8,3.1,1.6,5L37.8,423.9L37.8,423.9z M44.1,421.9
			c-0.1-1-1.2-2.5-3.1-2.5c-1.9,0-3,1.4-3.1,2.5H44.1z"/>
		<path class="st0" d="M59.4,428.5h-2.5v-1.6c-0.5,0.8-1.5,1.9-3.8,1.9c-3.4,0-5.6-2.6-5.6-5.8c0-3.6,2.5-5.8,5.5-5.8
			c2.1,0,3.3,1.1,3.7,1.8v-1.6v-3.6h2.6L59.4,428.5L59.4,428.5z M50.2,423c0,1.9,1.3,3.4,3.4,3.4c1,0,1.8-0.4,2.4-1
			c0.6-0.6,1-1.5,0.9-2.4c0-1-0.4-1.8-1-2.4c-0.6-0.6-1.4-1-2.4-1C51.4,419.6,50.2,421.3,50.2,423L50.2,423L50.2,423z"/>
		<path class="st0" d="M60.2,413.7h2.6v2.3h-2.6V413.7z M60.2,417.5h2.6v11h-2.6V417.5z"/>
		<path class="st0" d="M75.6,428.4H73v-1.6c-0.7,1.3-2.2,1.9-3.7,1.9c-3.5,0-5.6-2.7-5.6-5.8c0-3.5,2.5-5.8,5.6-5.8
			c2,0,3.2,1.1,3.7,1.9v-1.6h2.6V428.4z M66.3,423c0,1.4,1,3.3,3.3,3.3c1.5,0,2.4-0.8,2.9-1.8c0.3-0.5,0.4-1,0.4-1.5
			c0-0.5-0.1-1.1-0.3-1.5c-0.5-1-1.5-1.9-3.1-1.9C67.5,419.6,66.3,421.3,66.3,423L66.3,423L66.3,423z"/>
	</g>
</g>
</svg>
